# xmcd
#
# Track frame offsets: 
#        182
#        17330
#        32442
#        49347
#        66895
#        83060
#        99807
#        119260
#        140312
#        160222
#
# Disc length: 2354 seconds
#
# Revision: 7
# Processed by: cddbd v1.5.1PL0 Copyright (c) Steve Scherf et al.
# Submitted via: ExactAudioCopy v0.95a4
#
DISCID=7009300a
DTITLE=LeAnn Rimes - I Need You
DYEAR=2001
DGENRE=Pop
TTITLE0=I Need You
TTITLE1=But I Do Love You
TTITLE2=You Are
TTITLE3=Soon
TTITLE4=Can't Fight The Moonlight
TTITLE5=Love Must Be Telling Me Something
TTITLE6=Written In The Stars (Duet with Elton John)
TTITLE7=One Of These Days
TTITLE8=I Believe In You
TTITLE9=Together, Forever, Always
EXTD=YEAR: 2001
EXTT0=
EXTT1=
EXTT2=
EXTT3=
EXTT4=
EXTT5=
EXTT6=
EXTT7=
EXTT8=
EXTT9=
PLAYORDER=
